<svg id="visual" viewBox="0 0 900 600" width="900" height="600" xmlns="http://www.w3.org/2000/svg" xmlns:xlink="http://www.w3.org/1999/xlink" version="1.1"><rect x="0" y="0" width="900" height="600" fill="#001220"></rect><path d="M0 398L25 399.8C50 401.7 100 405.3 150 407C200 408.7 250 408.3 300 399.3C350 390.3 400 372.7 450 362.7C500 352.7 550 350.3 600 354.3C650 358.3 700 368.7 750 373.3C800 378 850 377 875 376.5L900 376L900 601L875 601C850 601 800 601 750 601C700 601 650 601 600 601C550 601 500 601 450 601C400 601 350 601 300 601C250 601 200 601 150 601C100 601 50 601 25 601L0 601Z" fill="#004173"></path><path d="M0 433L25 434.5C50 436 100 439 150 441.3C200 443.7 250 445.3 300 439.5C350 433.7 400 420.3 450 422.8C500 425.3 550 443.7 600 452C650 460.3 700 458.7 750 449.2C800 439.7 850 422.3 875 413.7L900 405L900 601L875 601C850 601 800 601 750 601C700 601 650 601 600 601C550 601 500 601 450 601C400 601 350 601 300 601C250 601 200 601 150 601C100 601 50 601 25 601L0 601Z" fill="#00355d"></path><path d="M0 493L25 487.5C50 482 100 471 150 463.5C200 456 250 452 300 459.5C350 467 400 486 450 491.2C500 496.3 550 487.7 600 481C650 474.3 700 469.7 750 471C800 472.3 850 479.7 875 483.3L900 487L900 601L875 601C850 601 800 601 750 601C700 601 650 601 600 601C550 601 500 601 450 601C400 601 350 601 300 601C250 601 200 601 150 601C100 601 50 601 25 601L0 601Z" fill="#002949"></path><path d="M0 509L25 514.7C50 520.3 100 531.7 150 537.7C200 543.7 250 544.3 300 540.3C350 536.3 400 527.7 450 522.8C500 518 550 517 600 525.5C650 534 700 552 750 552.5C800 553 850 536 875 527.5L900 519L900 601L875 601C850 601 800 601 750 601C700 601 650 601 600 601C550 601 500 601 450 601C400 601 350 601 300 601C250 601 200 601 150 601C100 601 50 601 25 601L0 601Z" fill="#001e35"></path></svg>